<svg xmlns="http://www.w3.org/2000/svg" viewBox="0 0 240 240">
  <defs>
    <linearGradient id="tg-gradient" x1="50%" x2="50%" y1="0%" y2="100%">
      <stop offset="0%" stop-color="#37aee2" />
      <stop offset="100%" stop-color="#1e96c8" />
    </linearGradient>
  </defs>
  <circle cx="120" cy="120" r="120" fill="url(#tg-gradient)" />
  <path fill="#c8daea" d="M174.2 71.3 54.1 116.3c-8.4 3.2-8.3 7.6-1.5 9.6l30.6 9.6 88.7-56.4c4.2-2.6 8.1-1.2 4.9 1.7l-71.8 64.3-2.7 28.5c3.9 0 5.6-1.8 7.7-3.9l18.5-18 38.5 28.3c7.1 3.9 12.2 1.9 14-6.6l25.4-119c2.6-10.4-3.9-15.1-12.2-11.1Z"/>
  <path fill="#fff" d="M96.3 156.3 92 182.8c3.7 0 5.4-1.6 7.3-3.5l18.7-18.3 38.1 27.9c6.8 3.8 11.6 1.8 13.4-6.3l24.4-114.4c2.5-10-3.8-14.4-11.6-10.6L62.5 99.6c-8 3-7.8 7.1-1.5 9l29.5 9.2 88.3-56c4.1-2.6 7.8-1.2 4.7 1.6Z" opacity=".6"/>
</svg>
