<svg xmlns="http://www.w3.org/2000/svg" viewBox="0 0 256 256">
  <defs>
    <linearGradient id="wa-gradient" x1="50%" x2="50%" y1="0%" y2="100%">
      <stop offset="0%" stop-color="#25D366" />
      <stop offset="100%" stop-color="#128C7E" />
    </linearGradient>
  </defs>
  <path fill="url(#wa-gradient)" d="M128 0C57.3 0 0 56.6 0 126.4c0 22.3 6 44 17.4 63l-18 66.6 68.5-17.9c18.6 10.2 39.6 15.7 60.1 15.7 70.7 0 128-56.6 128-126.4C256 56.6 198.7 0 128 0Z"/>
  <path fill="#fff" d="M188.4 150.6c-2.9-1.4-17.2-8.1-19.8-9s-4.6-1.4-6.6 1.4-7.6 9-9.3 10.9-3.4 2-6.3.7-12.3-4.5-23.5-14.2c-8.7-7.7-14.6-17.2-16.3-20.1s-.2-4.5 1.2-5.9c1.2-1.2 2.9-3.4 4.3-5.2s1.9-3.4 2.9-5.6c1-2.2.5-4.1-.2-5.9s-6.6-16-9.1-22c-2.4-5.8-4.9-5-6.6-5.1-1.7-.1-3.6-.1-5.6-.1s-5.2.7-7.9 3.7-10.3 10.1-10.3 24.6 10.6 28.5 12.1 30.5 20.8 31.8 50.4 44.6c7 3 12.5 4.8 16.8 6.1 7 2.2 13.4 1.9 18.4 1.2 5.6-.8 17.2-7 19.6-13.7 2.4-6.7 2.4-12.5 1.7-13.7-.8-1.1-2.7-1.9-5.6-3.3Z"/>
</svg>
